<svg width="13" height="15" viewBox="0 0 13 15" fill="none" xmlns="http://www.w3.org/2000/svg">
<path d="M12.1875 5.83292C12.3706 5.83293 12.5469 5.9018 12.6815 6.02585C12.8162 6.1499 12.8992 6.32005 12.9142 6.5025L12.9167 6.56208V12.4996C12.9167 13.1191 12.6767 13.7146 12.2471 14.161C11.8175 14.6074 11.2316 14.87 10.6125 14.8937L10.5208 14.8954H2.39583C1.77628 14.8954 1.1808 14.6555 0.734392 14.2258C0.287988 13.7962 0.0253714 13.2104 0.00166655 12.5913L0 12.4996V6.56208C0.000191172 6.37399 0.0730624 6.19324 0.203388 6.05761C0.333713 5.92198 0.511409 5.84196 0.699349 5.83427C0.887288 5.82658 1.07093 5.89181 1.2119 6.01634C1.35287 6.14086 1.44027 6.31505 1.45583 6.5025L1.45833 6.56208V12.4996C1.4583 12.7371 1.54846 12.9658 1.71057 13.1395C1.87268 13.3131 2.09467 13.4187 2.33167 13.435L2.39583 13.4371H10.5208C10.7584 13.4371 10.9871 13.347 11.1607 13.1848C11.3344 13.0227 11.44 12.8007 11.4563 12.5637L11.4583 12.4996V6.56208C11.4583 6.15958 11.7846 5.83292 12.1875 5.83292ZM6.24958 0.00708342L6.31167 0.000833273L6.38458 0L6.44875 0.00541667L6.52292 0.0191667L6.55167 0.0266667C6.63292 0.0491667 6.71125 0.08625 6.78208 0.1375L6.83208 0.177083L6.87083 0.213333L10.1117 3.45417C10.2439 3.58666 10.32 3.76492 10.3244 3.95203C10.3288 4.13915 10.2611 4.32079 10.1353 4.45935C10.0095 4.59792 9.83519 4.68279 9.64853 4.69641C9.46186 4.71003 9.2771 4.65134 9.1325 4.5325L9.08042 4.48542L7.08333 2.48792V10.5204C7.08332 10.7035 7.01445 10.8798 6.8904 11.0145C6.76635 11.1491 6.5962 11.2321 6.41375 11.2471L6.35417 11.2496C6.17117 11.2496 5.99487 11.1808 5.86025 11.0568C5.72564 10.9328 5.64256 10.7628 5.6275 10.5804L5.625 10.5204V2.48958L3.63 4.48542C3.50183 4.61355 3.33053 4.68935 3.14951 4.69806C2.96849 4.70676 2.79071 4.64774 2.65083 4.5325L2.59875 4.48542C2.47056 4.3573 2.39468 4.18603 2.3859 4.00501C2.37712 3.82398 2.43606 3.64618 2.55125 3.50625L2.59875 3.45417L5.82875 0.223333C5.85208 0.199167 5.87708 0.176667 5.90333 0.155833L5.95042 0.122083C5.96627 0.111096 5.98268 0.100943 5.99958 0.0916668L6.0075 0.0875C6.08125 0.0470833 6.16292 0.0195834 6.24917 0.00708342H6.24958Z" fill="white" fill-opacity="0.8"/>
</svg>
