<svg width="10" height="10" viewBox="0 0 10 10" fill="none" xmlns="http://www.w3.org/2000/svg">
<path d="M9.05716 0.942842C8.91798 0.80252 8.7524 0.691144 8.56997 0.615138C8.38753 0.539132 8.19185 0.5 7.99421 0.5C7.79658 0.5 7.6009 0.539132 7.41846 0.615138C7.23602 0.691144 7.07044 0.80252 6.93127 0.942842L5 2.88908L3.06873 0.942842C2.78682 0.660931 2.40447 0.502556 2.00579 0.502556C1.60711 0.502556 1.22475 0.660931 0.942842 0.942842C0.660931 1.22475 0.502556 1.60711 0.502556 2.00579C0.502556 2.40447 0.660931 2.78682 0.942842 3.06873L2.88908 5L0.942842 6.93127C0.80252 7.07044 0.691144 7.23602 0.615138 7.41846C0.539132 7.6009 0.5 7.79658 0.5 7.99421C0.5 8.19185 0.539132 8.38753 0.615138 8.56997C0.691144 8.7524 0.80252 8.91798 0.942842 9.05716C1.08202 9.19748 1.2476 9.30886 1.43003 9.38486C1.61247 9.46087 1.80815 9.5 2.00579 9.5C2.20342 9.5 2.3991 9.46087 2.58154 9.38486C2.76398 9.30886 2.92956 9.19748 3.06873 9.05716L5 7.11092L6.93127 9.05716C7.07044 9.19748 7.23602 9.30886 7.41846 9.38486C7.6009 9.46087 7.79658 9.5 7.99421 9.5C8.19185 9.5 8.38753 9.46087 8.56997 9.38486C8.7524 9.30886 8.91798 9.19748 9.05716 9.05716C9.19748 8.91798 9.30886 8.7524 9.38486 8.56997C9.46087 8.38753 9.5 8.19185 9.5 7.99421C9.5 7.79658 9.46087 7.6009 9.38486 7.41846C9.30886 7.23602 9.19748 7.07044 9.05716 6.93127L7.11092 5L9.05716 3.06873C9.19748 2.92956 9.30886 2.76398 9.38486 2.58154C9.46087 2.3991 9.5 2.20342 9.5 2.00579C9.5 1.80815 9.46087 1.61247 9.38486 1.43003C9.30886 1.2476 9.19748 1.08202 9.05716 0.942842Z" fill="white" fill-opacity="0.7"/>
</svg>
