<svg width="10" height="8" viewBox="0 0 10 8" fill="none" xmlns="http://www.w3.org/2000/svg">
<path d="M8.95851 0.66678H7.8474V1.50011C7.8474 1.58037 7.8316 1.65983 7.80088 1.73398C7.77017 1.80812 7.72516 1.87549 7.66841 1.93223C7.61167 1.98898 7.5443 2.034 7.47015 2.06471C7.39601 2.09542 7.31654 2.11122 7.23629 2.11122C7.15604 2.11122 7.07657 2.09542 7.00243 2.06471C6.92829 2.034 6.86092 1.98898 6.80417 1.93223C6.74742 1.87549 6.70241 1.80812 6.6717 1.73398C6.64099 1.65983 6.62518 1.58037 6.62518 1.50011V0.66678H3.38907V1.50011C3.38907 1.66219 3.32468 1.81763 3.21008 1.93223C3.09547 2.04684 2.94003 2.11122 2.77796 2.11122C2.61588 2.11122 2.46044 2.04684 2.34584 1.93223C2.23123 1.81763 2.16685 1.66219 2.16685 1.50011V0.66678H1.05574C0.989631 0.666028 0.924047 0.678539 0.862862 0.703575C0.801677 0.728611 0.746133 0.765662 0.699517 0.812537C0.652901 0.859413 0.616158 0.91516 0.591461 0.976483C0.566765 1.03781 0.554617 1.10346 0.555735 1.16956V7.38622C0.554632 7.45116 0.566331 7.51567 0.590165 7.57608C0.613999 7.6365 0.6495 7.69162 0.694641 7.73831C0.739783 7.785 0.79368 7.82234 0.853254 7.84819C0.912828 7.87405 0.976912 7.88792 1.04185 7.889H8.95851C9.02345 7.88792 9.08753 7.87405 9.14711 7.84819C9.20668 7.82234 9.26058 7.785 9.30572 7.73831C9.35086 7.69162 9.38636 7.6365 9.4102 7.57608C9.43403 7.51567 9.44573 7.45116 9.44462 7.38622V1.16956C9.44573 1.10462 9.43403 1.04011 9.4102 0.979697C9.38636 0.919286 9.35086 0.864161 9.30572 0.817472C9.26058 0.770783 9.20668 0.733444 9.14711 0.707588C9.08753 0.681732 9.02345 0.667865 8.95851 0.66678ZM2.77796 6.22233H2.2224V5.66678H2.77796V6.22233ZM2.77796 4.83345H2.2224V4.27789H2.77796V4.83345ZM2.77796 3.44456H2.2224V2.889H2.77796V3.44456ZM4.44462 6.22233H3.88907V5.66678H4.44462V6.22233ZM4.44462 4.83345H3.88907V4.27789H4.44462V4.83345ZM4.44462 3.44456H3.88907V2.889H4.44462V3.44456ZM6.11129 6.22233H5.55574V5.66678H6.11129V6.22233ZM6.11129 4.83345H5.55574V4.27789H6.11129V4.83345ZM6.11129 3.44456H5.55574V2.889H6.11129V3.44456ZM7.77796 6.22233H7.2224V5.66678H7.77796V6.22233ZM7.77796 4.83345H7.2224V4.27789H7.77796V4.83345ZM7.77796 3.44456H7.2224V2.889H7.77796V3.44456Z" fill="white" fill-opacity="0.7"/>
</svg>
