<svg width="13" height="12" viewBox="0 0 13 12" fill="none" xmlns="http://www.w3.org/2000/svg">
<path d="M12.3023 4.17237L8.58306 3.63184L6.92046 0.261236C6.87505 0.168951 6.80034 0.0942437 6.70806 0.0488336C6.47661 -0.0654243 6.19536 0.0297906 6.07964 0.261236L4.41704 3.63184L0.697804 4.17237C0.595265 4.18702 0.501515 4.23536 0.429738 4.3086C0.342963 4.39779 0.295146 4.51778 0.296794 4.64221C0.298442 4.76663 0.34942 4.88531 0.438527 4.97217L3.12945 7.59571L2.4937 11.3003C2.47879 11.3865 2.48833 11.4751 2.52123 11.5561C2.55413 11.6372 2.60908 11.7074 2.67984 11.7588C2.7506 11.8102 2.83435 11.8407 2.92158 11.8469C3.00882 11.8531 3.09605 11.8348 3.17339 11.794L6.50005 10.0449L9.82671 11.794C9.91753 11.8423 10.023 11.8584 10.1241 11.8408C10.379 11.7969 10.5503 11.5552 10.5064 11.3003L9.87066 7.59571L12.5616 4.97217C12.6348 4.9004 12.6832 4.80665 12.6978 4.70411C12.7374 4.44776 12.5586 4.21045 12.3023 4.17237Z" fill="white" fill-opacity="0.75"/>
</svg>
