<svg width="18" height="12" viewBox="0 0 18 12" fill="none" xmlns="http://www.w3.org/2000/svg">
<path d="M17.3848 2.20488C17.2851 1.87097 17.0898 1.56645 16.8184 1.32182C16.5469 1.07719 16.2088 0.901017 15.8379 0.810938C14.4727 0.480469 9 0.480469 9 0.480469C9 0.480469 3.52734 0.480469 2.16211 0.80918C1.79106 0.898967 1.45278 1.07504 1.18126 1.31972C0.90974 1.5644 0.71453 1.86906 0.615234 2.20312C0.25 3.43359 0.25 6 0.25 6C0.25 6 0.25 8.56641 0.615234 9.79512C0.816406 10.4736 1.41016 11.008 2.16211 11.1891C3.52734 11.5195 9 11.5195 9 11.5195C9 11.5195 14.4727 11.5195 15.8379 11.1891C16.5918 11.008 17.1836 10.4736 17.3848 9.79512C17.75 8.56641 17.75 6 17.75 6C17.75 6 17.75 3.43359 17.3848 2.20488ZM7.26172 8.35547V3.64453L11.793 5.98242L7.26172 8.35547Z" fill="white" fill-opacity="0.7"/>
</svg>
